#!OML:ASF C:\ViconDB\ViconDB\414\Spring2016\041811\Spring2016.ASF
:FULLY-SPECIFIED
:DEGREES
216
root 11.47 17.7124 18.9131 -17.43 -86.2167 18.3434
lowerback 4.31246 -0.191502 -5.10878
upperback 0.644671 -0.493426 0.465704
thorax -1.70779 -0.218876 3.37654
lowerneck 1.73217 -11.0884 -23.9307
upperneck 21.1777 -23.0968 28.0647
head 13.4078 -11.7141 11.9301
rclavicle 7.14382e-015 -1.15047e-014
rhumerus -4.16663 -28.0751 -2.19918
rradius 68.5116
rwrist 17.1886
rhand -54.9849 -22.0692
rfingers 7.12502
rthumb -27.3657 -50.1024
lclavicle 7.14382e-015 -1.15047e-014
lhumerus -12.064 11.3674 2.61119
lradius 45.1522
lwrist 5.94664
lhand -44.3943 35.4523
lfingers 7.12502
lthumb -17.2007 64.7111
rfemur 168.412 35.0861 -179.132
rtibia 31.1461
rfoot -15.301 -49.4782
rtoes -21.2279
lfemur -15.8541 -5.696 -11.1366
ltibia 41.4886
lfoot -29.4174 6.82384
ltoes -14.864
217
root 11.4957 17.7019 18.917 -19.0117 -86.2968 20.023
lowerback 4.55923 -0.143423 -5.04192
upperback 0.654599 -0.438818 0.533938
thorax -1.84104 -0.188701 3.4086
lowerneck 1.62572 -11.1117 -23.8279
upperneck 21.1438 -23.1289 28.1293
head 13.4264 -11.707 11.9253
rclavicle -1.32005e-016 4.75841e-015
rhumerus -4.20821 -28.2099 -2.30181
rradius 68.4499
rwrist 17.0081
rhand -55.0394 -22.0872
rfingers 7.12502
rthumb -27.4178 -50.1122
lclavicle -1.32005e-016 4.75841e-015
lhumerus -12.0878 11.6032 2.57141
lradius 45.1986
lwrist 6.04145
lhand -44.4435 35.49
lfingers 7.12502
lthumb -17.2481 64.7446
rfemur 168.622 36.0188 -179.092
rtibia 31.1758
rfoot -16.0612 -49.9878
rtoes -19.8906
lfemur -16.1968 -5.49032 -11.2035
ltibia 41.7557
lfoot -29.4187 6.78428
ltoes -14.943
218
root 11.5174 17.691 18.9211 -20.6196 -86.3452 21.6685
lowerback 4.73087 -0.0905518 -4.97191
upperback 0.750499 -0.371783 0.606867
thorax -1.84459 -0.157874 3.44163
lowerneck 1.54848 -11.1442 -23.7232
upperneck 21.0047 -23.1728 28.2745
head 13.4151 -11.7046 11.9485
rclavicle 1.33248e-015 2.98177e-016
rhumerus -4.28112 -28.4463 -2.38153
rradius 68.3684
rwrist 17.06
rhand -54.9933 -22.3022
rfingers 7.12502
rthumb -27.3737 -50.3341
lclavicle 1.33248e-015 2.98177e-016
lhumerus -12.1543 11.8357 2.49353
lradius 45.3464
lwrist 6.08771
lhand -44.4276 35.5678
lfingers 7.12502
lthumb -17.2328 64.8237
rfemur 168.707 37.1133 -179.101
rtibia 31.2366
rfoot -17.0221 -50.583
rtoes -18.5031
lfemur -16.4462 -5.30542 -11.2873
ltibia 42.0055
lfoot -29.7227 6.78687
ltoes -14.7028
219
root 11.5432 17.6838 18.9218 -21.9051 -86.5106 23.1155
lowerback 4.87559 -0.0345784 -4.95233
upperback 0.766816 -0.299699 0.800701
thorax -1.91475 -0.120078 3.62812
lowerneck 1.50926 -11.1904 -23.8064
upperneck 20.9232 -23.22 28.3245
head 13.4306 -11.7221 11.9665
rclavicle 1.85118e-015 -1.98785e-016
rhumerus -4.16331 -28.5406 -2.43849
rradius 68.2721
rwrist 16.8563
rhand -55.0722 -21.9694
rfingers 7.12502
rthumb -27.4492 -49.9893
lclavicle 1.85118e-015 -1.98785e-016
lhumerus -12.2683 12.0705 2.5241
lradius 45.3384
lwrist 6.02786
lhand -44.3309 35.4095
lfingers 7.12502
lthumb -17.1397 64.6736
rfemur 169.033 37.9164 -178.899
rtibia 31.2783
rfoot -17.6431 -51.187
rtoes -17.0629
lfemur -16.8194 -5.07126 -11.2747
ltibia 42.257
lfoot -29.9368 6.73493
ltoes -14.2534
220
root 11.5696 17.672 18.9256 -24.4632 -86.5557 25.7701
lowerback 5.12827 0.000582202 -4.85932
upperback 0.781023 -0.260279 0.858173
thorax -2.04567 -0.0980453 3.63443
lowerneck 1.55086 -11.2176 -23.816
upperneck 20.7957 -23.3025 28.5014
head 13.4381 -11.7598 12.0281
rclavicle 1.2014e-014 4.96962e-015
rhumerus -4.18132 -28.7274 -2.62333
rradius 68.2401
rwrist 16.852
rhand -54.927 -21.7634
rfingers 7.12502
rthumb -27.3103 -49.8053
lclavicle 1.2014e-014 4.96962e-015
lhumerus -12.291 12.4421 2.43268
lradius 45.3667
lwrist 5.97283
lhand -44.3003 35.4543
lfingers 7.12502
lthumb -17.1103 64.7209
rfemur 169.214 38.8758 -178.907
rtibia 31.349
rfoot -18.3308 -51.8708
rtoes -15.3656
lfemur -17.1205 -5.08962 -11.427
ltibia 42.4945
lfoot -29.8463 6.87017
ltoes -14.5963
221
root 11.594 17.665 18.924 -25.6193 -86.6426 26.9824
lowerback 5.47275 0.031877 -4.68687
upperback 0.791288 -0.225399 0.923048
thorax -2.23184 -0.0775788 3.60431
lowerneck 1.45347 -11.2987 -23.6211
upperneck 20.7989 -23.4231 28.4824
head 13.4708 -11.7873 11.9447
rclavicle -6.33626e-015 1.15295e-014
rhumerus -4.26021 -28.7395 -2.8092
rradius 68.1756
rwrist 16.7704
rhand -54.9347 -21.9578
rfingers 7.12502
rthumb -27.3177 -49.9986
lclavicle -6.33626e-015 1.15295e-014
lhumerus -12.2559 12.716 2.25418
lradius 45.4719
lwrist 6.16035
lhand -44.2428 35.5756
lfingers 7.12502
lthumb -17.0549 64.8469
rfemur 169.319 39.203 -178.864
rtibia 31.4378
rfoot -18.361 -52.4051
rtoes -14.028
lfemur -17.366 -4.98643 -11.428
ltibia 42.7069
lfoot -29.7535 6.84652
ltoes -14.7841
222
root 11.6205 17.6573 18.9223 -30.2777 -86.7019 31.7623
lowerback 5.697 0.10192 -4.8098
upperback 0.838627 -0.147457 1.06788
thorax -2.31529 -0.0365582 3.8198
lowerneck 1.50427 -11.3704 -23.7483
upperneck 20.5462 -23.5287 28.6864
head 13.4567 -11.8399 12.0217
rclavicle 5.46658e-016 2.34566e-014
rhumerus -4.20131 -28.9091 -2.89322
rradius 68.0907
rwrist 16.8081
rhand -54.8254 -21.8382
rfingers 7.12502
rthumb -27.2131 -49.8953
lclavicle 5.46658e-016 2.34566e-014
lhumerus -12.2617 13.013 2.27912
lradius 45.472
lwrist 6.3364
lhand -44.3873 35.7605
lfingers 7.12502
lthumb -17.194 65.0197
rfemur 169.519 39.6972 -178.945
rtibia 31.5511
rfoot -18.6129 -53.0766
rtoes -12.7673
lfemur -17.6533 -4.85987 -11.6493
ltibia 42.9006
lfoot -29.8219 6.93683
ltoes -14.6669
223
root 11.6476 17.651 18.9181 -31.7898 -86.7544 33.4326
lowerback 5.99625 0.120743 -4.68894
upperback 0.740266 -0.127435 1.18945
thorax -2.58668 -0.0178916 3.87866
lowerneck 1.84401 -11.3456 -23.9058
upperneck 20.3151 -23.6221 29.012
head 13.4165 -11.9246 12.1958
rclavicle 3.42904e-015 -1.19271e-015
rhumerus -4.28335 -28.809 -3.03808
rradius 68.0998
rwrist 16.8242
rhand -54.829 -22.0229
rfingers 7.12502
rthumb -27.2166 -50.0795
lclavicle 3.42904e-015 -1.19271e-015
lhumerus -12.3166 13.041 2.10104
lradius 45.5147
lwrist 6.35565
lhand -44.3513 35.5563
lfingers 7.12502
lthumb -17.1593 64.8186
rfemur 169.743 39.9805 -178.836
rtibia 31.6655
rfoot -18.5743 -53.5817
rtoes -11.8924
lfemur -18.0107 -4.7009 -11.6562
ltibia 43.0836
lfoot -29.8329 6.87977
ltoes -14.5272
224
root 11.6725 17.6459 18.9139 -33.7024 -86.8465 35.4242
lowerback 6.26656 0.146868 -4.51262
upperback 0.773462 -0.0911372 1.30438
thorax -2.70746 0.000694109 3.89714
lowerneck 2.00389 -11.4283 -23.9047
upperneck 20.0633 -23.7667 29.1693
head 13.3639 -11.9976 12.2222
rclavicle 7.05686e-015 2.38542e-015
rhumerus -4.36387 -28.8645 -3.21214
rradius 68.1195
rwrist 16.6688
rhand -54.7543 -21.8874
rfingers 7.12502
rthumb -27.1451 -49.9552
lclavicle 7.05686e-015 2.38542e-015
lhumerus -12.3404 13.2615 1.92162
lradius 45.6046
lwrist 6.48487
lhand -44.4778 35.6456
lfingers 7.12502
lthumb -17.2811 64.8973
rfemur 169.874 40.0656 -178.776
rtibia 31.8174
rfoot -18.5014 -54.2365
rtoes -10.9662
lfemur -18.2474 -4.54599 -11.6693
ltibia 43.2461
lfoot -29.8809 6.90339
ltoes -14.5171
225
root 11.7001 17.6404 18.9083 -35.1936 -87.038 37.0101
lowerback 6.61728 0.194262 -4.23953
upperback 0.762595 -0.021293 1.44448
thorax -2.92217 0.0381012 3.88457
lowerneck 2.18352 -11.4916 -23.934
upperneck 19.7933 -23.915 29.4116
head 13.3258 -12.0786 12.2975
rclavicle 2.98177e-016 5.1684e-015
rhumerus -4.36293 -28.9071 -3.47691
rradius 68.0904
rwrist 16.6758
rhand -54.8678 -23.0761
rfingers 7.12502
rthumb -27.2537 -51.1269
lclavicle 2.98177e-016 5.1684e-015
lhumerus -12.2901 13.5199 1.77863
lradius 45.5619
lwrist 6.37564
lhand -44.4554 35.6832
lfingers 7.12502
lthumb -17.2595 64.9367
rfemur 170.06 39.995 -178.582
rtibia 31.9756
rfoot -18.0865 -54.872
rtoes -9.44584
lfemur -18.4934 -4.42604 -11.5881
ltibia 43.406
lfoot -29.9027 6.99103
ltoes -14.4963
226
root 11.7228 17.6351 18.8978 -37.1456 -86.9554 39.0808
lowerback 6.86883 0.168545 -4.16276
upperback 0.812764 -0.0583531 1.54497
thorax -3.0073 0.0195054 3.95066
lowerneck 2.18173 -11.6153 -23.9119
upperneck 19.5902 -24.1261 29.6045
head 13.3614 -12.1668 12.3149
rclavicle 9.59136e-015 -7.55382e-015
rhumerus -4.42943 -28.9491 -3.6809
rradius 68.0693
rwrist 16.4844
rhand -54.7835 -22.4315
rfingers 7.12502
rthumb -27.173 -50.4949
lclavicle 9.59136e-015 -7.55382e-015
lhumerus -12.2584 13.8697 1.55239
lradius 45.5384
lwrist 6.44032
lhand -44.4122 35.3064
lfingers 7.12502
lthumb -17.2179 64.5636
rfemur 170.146 40.4478 -178.565
rtibia 32.2002
rfoot -18.1801 -55.6098
rtoes -8.08988
lfemur -18.7761 -4.35133 -11.6746
ltibia 43.544
lfoot -29.8533 6.94543
ltoes -14.456
227
root 11.7462 17.6341 18.887 -39.0132 -87.1263 41.141
lowerback 7.09959 0.20476 -4.00264
upperback 0.780511 -0.000730114 1.78334
thorax -3.17574 0.0515476 4.10512
lowerneck 2.39345 -11.7036 -24.0949
upperneck 19.3041 -24.2935 29.8144
head 13.3367 -12.2693 12.3973
rclavicle -4.72114e-015 -1.03368e-014
rhumerus -4.38854 -28.8063 -3.70379
rradius 68.0286
rwrist 16.3489
rhand -54.6591 -22.1944
rfingers 7.12502
rthumb -27.054 -50.2764
lclavicle -4.72114e-015 -1.03368e-014
lhumerus -12.2408 14.1752 1.48588
lradius 45.456
lwrist 6.33912
lhand -44.363 35.0849
lfingers 7.12502
lthumb -17.1706 64.3462
rfemur 170.495 40.938 -178.167
rtibia 32.4512
rfoot -18.8608 -56.4606
rtoes -6.53402
lfemur -19.1026 -4.03311 -11.5714
ltibia 43.6643
lfoot -29.7794 6.8562
ltoes -14.4588
228
root 11.7658 17.6249 18.876 -42.972 -87.1123 45.2095
lowerback 7.36269 0.238032 -3.92213
upperback 0.796482 0.0430439 1.91218
thorax -3.31096 0.0751041 4.19156
lowerneck 2.67827 -11.7987 -24.1842
upperneck 18.8951 -24.4797 30.1115
head 13.2576 -12.38 12.4931
rclavicle -3.08116e-015 1.11319e-014
rhumerus -4.54917 -28.7659 -3.77449
rradius 67.9487
rwrist 16.3181
rhand -54.6738 -22.5815
rfingers 7.12502
rthumb -27.0681 -50.6613
lclavicle -3.08116e-015 1.11319e-014
lhumerus -12.1346 14.4421 1.35467
lradius 45.388
lwrist 6.06182
lhand -44.2178 34.8023
lfingers 7.12502
lthumb -17.0309 64.0758
rfemur 170.682 42.0231 -178.003
rtibia 32.7569
rfoot -20.1545 -57.4505
rtoes -4.48374
lfemur -19.3141 -3.93571 -11.6981
ltibia 43.7561
lfoot -29.7469 6.93115
ltoes -14.6017
229
root 11.7877 17.6225 18.8614 -45.1233 -87.0583 47.5071
lowerback 7.65782 0.220802 -3.75749
upperback 0.761516 0.0262697 2.02884
thorax -3.51082 0.0699689 4.22424
lowerneck 2.92758 -11.8676 -24.2422
upperneck 18.5837 -24.6594 30.4012
head 13.2199 -12.4868 12.5908
rclavicle 1.49089e-015 -9.54166e-015
rhumerus -4.72094 -28.6324 -3.84463
rradius 67.9037
rwrist 16.1505
rhand -54.8216 -22.337
rfingers 7.12502
rthumb -27.2095 -50.3948
lclavicle 1.49089e-015 -9.54166e-015
lhumerus -12.0695 14.5413 1.13069
lradius 45.3981
lwrist 5.95772
lhand -44.2719 35.1229
lfingers 7.12502
lthumb -17.0829 64.3918
rfemur 170.804 42.1376 -177.933
rtibia 33.0844
rfoot -19.8732 -58.119
rtoes -2.52694
lfemur -19.5769 -3.89624 -11.7556
ltibia 43.8149
lfoot -29.7216 6.9708
ltoes -14.5694
230
root 11.8096 17.6212 18.8426 -48.6088 -87.1338 51.1127
lowerback 7.88897 0.259881 -3.60182
upperback 0.903165 0.0863629 2.20788
thorax -3.4991 0.0936224 4.31794
lowerneck 2.80778 -12.0695 -24.2931
upperneck 18.2401 -24.9437 30.6954
head 13.2921 -12.5992 12.6259
rclavicle 0 -1.03368e-014
rhumerus -4.75198 -28.8184 -3.92294
rradius 67.8032
rwrist 16.104
rhand -54.7387 -22.6751
rfingers 7.12502
rthumb -27.1302 -50.7452
lclavicle 0 -1.03368e-014
lhumerus -11.9223 14.9296 1.02722
lradius 45.3958
lwrist 6.05047
lhand -44.4279 35.7145
lfingers 7.12502
lthumb -17.2331 64.9704
rfemur 171.022 42.401 -177.689
rtibia 33.4156
rfoot -20.0913 -58.703
rtoes -0.243084
lfemur -19.7662 -3.6605 -11.7261
ltibia 43.8444
lfoot -29.6728 6.92594
ltoes -14.4943
